<?xml version="1.0" standalone="no"?>
<!DOCTYPE svg PUBLIC "-//W3C//DTD SVG 20010904//EN"
 "http://www.w3.org/TR/2001/REC-SVG-20010904/DTD/svg10.dtd">
<svg version="1.0" xmlns="http://www.w3.org/2000/svg"
 width="700.000000pt" height="700.000000pt" viewBox="0 0 700.000000 700.000000"
 preserveAspectRatio="xMidYMid meet">
<metadata>
Created by potrace 1.14, written by Peter Selinger 2001-2017
</metadata>
<g transform="translate(0.000000,700.000000) scale(0.100000,-0.100000)"
fill="#000000" stroke="none">
<path d="M740 5330 c0 -17 1645 -3463 1672 -3502 28 -41 85 -55 131 -33 31 15
45 34 98 139 34 66 146 283 249 481 516 991 1160 2235 1160 2240 0 3 -87 5
-193 5 l-194 0 -25 -47 c-14 -27 -226 -430 -471 -898 -542 -1036 -663 -1261
-672 -1258 -4 1 -187 381 -405 845 -219 464 -524 1111 -678 1438 l-281 595
-195 3 c-129 1 -196 -1 -196 -8z"/>
<path d="M4231 5330 l-224 -5 -80 -150 c-43 -82 -81 -156 -84 -162 -4 -10 94
-13 471 -13 l476 0 2 -1576 3 -1576 33 -29 c31 -28 36 -29 132 -29 108 0 140
9 167 49 17 25 18 115 21 1593 l2 1567 336 3 336 3 29 33 c28 31 29 37 29 125
0 112 -18 150 -77 166 -39 11 -1123 12 -1572 1z"/>
</g>
</svg>
