<svg version="1.0" xmlns="http://www.w3.org/2000/svg" width="933.333" height="933.333" viewBox="0 0 700 700"><path d="M74 167c0 1.7 164.5 346.3 167.2 350.2 2.8 4.1 8.5 5.5 13.1 3.3 3.1-1.5 4.5-3.4 9.8-13.9 3.4-6.6 14.6-28.3 24.9-48.1 51.6-99.1 116-223.5 116-224 0-.3-8.7-.5-19.3-.5h-19.4l-2.5 4.7c-1.4 2.7-22.6 43-47.1 89.8-54.2 103.6-66.3 126.1-67.2 125.8-.4-.1-18.7-38.1-40.5-84.5-21.9-46.4-52.4-111.1-67.8-143.8l-28.1-59.5-19.5-.3c-12.9-.1-19.6.1-19.6.8z"/><path d="m423.1 167-22.4.5-8 15c-4.3 8.2-8.1 15.6-8.4 16.2-.4 1 9.4 1.3 47.1 1.3H479l.2 157.6.3 157.6 3.3 2.9c3.1 2.8 3.6 2.9 13.2 2.9 10.8 0 14-.9 16.7-4.9 1.7-2.5 1.8-11.5 2.1-159.3l.2-156.7 33.6-.3 33.6-.3 2.9-3.3c2.8-3.1 2.9-3.7 2.9-12.5 0-11.2-1.8-15-7.7-16.6-3.9-1.1-112.3-1.2-157.2-.1z"/></svg>